<?xml version="1.0" standalone="no"?>
<!DOCTYPE svg PUBLIC "-//W3C//DTD SVG 20010904//EN"
 "http://www.w3.org/TR/2001/REC-SVG-20010904/DTD/svg10.dtd">
<svg version="1.0" xmlns="http://www.w3.org/2000/svg"
 width="390.000000pt" height="390.000000pt" viewBox="0 0 390.000000 390.000000"
 preserveAspectRatio="xMidYMid meet">
<metadata>
Created by potrace 1.14, written by Peter Selinger 2001-2017
</metadata>
<g transform="translate(0.000000,390.000000) scale(0.100000,-0.100000)"
fill="#000000" stroke="none">
<path d="M3235 3491 c-166 -77 -373 -291 -491 -507 -25 -46 -49 -82 -53 -79
-28 17 -37 175 -10 175 5 0 9 11 9 24 0 44 -37 112 -89 162 -50 47 -51 50 -41
84 15 53 13 88 -7 94 -10 3 -47 -2 -83 -10 -36 -9 -85 -18 -110 -21 -33 -4
-52 -13 -72 -34 -37 -40 -58 -38 -58 5 0 26 -5 36 -20 41 -16 5 -37 -9 -96
-64 -41 -39 -109 -91 -150 -117 -41 -26 -74 -52 -74 -57 0 -5 -9 -22 -21 -38
-18 -25 -26 -29 -67 -27 -74 3 -207 -21 -299 -54 -94 -34 -183 -94 -234 -159
-19 -23 -57 -67 -86 -97 l-51 -54 -18 27 c-33 50 -91 78 -165 79 l-65 1 -110
90 c-60 49 -170 148 -244 220 -170 164 -258 240 -288 248 -23 5 -24 4 -17 -46
26 -206 168 -554 292 -717 l53 -70 -35 -32 c-20 -17 -49 -56 -65 -87 l-28 -56
-41 88 c-51 108 -101 272 -134 437 -26 129 -56 340 -58 413 -1 35 -3 31 -10
-23 -25 -181 67 -619 180 -855 47 -99 147 -237 191 -263 15 -9 19 -17 12 -25
-5 -7 -14 -59 -21 -117 -12 -110 -22 -130 -66 -130 -24 0 -45 -17 -45 -37 0
-15 42 -34 173 -77 53 -18 99 -35 102 -38 3 -3 -6 -30 -19 -60 -41 -93 -42
-116 -6 -228 37 -115 113 -244 202 -344 42 -46 58 -73 58 -93 0 -34 -36 -166
-57 -210 -8 -17 -13 -36 -9 -41 7 -12 140 11 161 28 31 26 26 0 -8 -42 -49
-61 -136 -197 -143 -224 -11 -44 5 -44 93 1 47 25 120 56 162 69 74 24 181 44
181 33 0 -2 -33 -29 -72 -59 -40 -31 -107 -81 -148 -114 -41 -32 -66 -48 -56
-36 24 28 7 28 -47 0 -23 -11 -78 -33 -122 -47 -44 -14 -77 -30 -75 -36 7 -14
53 -8 132 19 l69 23 -98 -93 c-54 -51 -104 -93 -110 -94 -7 0 -13 -3 -13 -7 0
-15 38 -69 83 -118 36 -40 48 -48 58 -37 11 10 6 19 -22 50 -69 74 -73 80 -59
97 18 22 32 19 81 -20 24 -19 50 -35 58 -35 7 0 -11 18 -40 40 -30 22 -58 40
-63 40 -28 0 176 175 424 365 85 65 174 134 198 152 24 18 49 33 56 33 24 0
34 -21 25 -53 -4 -18 -12 -73 -18 -123 -6 -50 -20 -117 -31 -149 -23 -66 -25
-85 -9 -85 33 0 86 232 75 328 l-6 53 72 -56 c40 -31 105 -71 144 -90 80 -39
79 -39 231 19 61 23 74 25 99 14 16 -6 36 -13 44 -14 8 -1 35 -11 60 -21 59
-26 100 -36 100 -24 0 5 10 12 23 14 18 4 17 4 -6 6 -16 0 -37 6 -47 11 -13 7
-21 7 -25 0 -4 -7 -12 -7 -18 -2 -7 5 -40 17 -74 27 -35 10 -63 22 -63 26 0
12 46 22 59 14 6 -3 9 0 6 7 -3 8 21 27 65 50 58 31 71 34 81 22 8 -10 8 -18
0 -27 -8 -10 -7 -17 1 -25 17 -17 3 -15 -33 4 -42 21 -47 11 -7 -14 18 -11 43
-30 56 -42 12 -11 22 -17 22 -12 0 5 -10 17 -22 25 -19 13 -20 16 -5 16 20 1
22 12 5 29 -9 9 -8 12 5 12 9 0 17 -6 17 -14 0 -8 6 -16 14 -19 9 -4 16 -30
21 -79 17 -197 55 -338 91 -338 12 0 14 5 9 18 -29 67 -46 139 -60 263 l-18
143 64 58 c35 31 70 57 77 58 7 0 44 -16 82 -35 137 -69 236 -134 291 -192
118 -124 223 -312 253 -457 15 -74 36 -87 36 -22 0 26 -13 77 -30 122 -16 43
-28 79 -26 81 2 2 73 -35 157 -83 200 -114 279 -145 279 -109 0 8 -6 15 -12
15 -23 0 -120 49 -293 148 l-170 96 -52 78 -52 78 37 -17 c61 -27 196 -73 216
-73 21 0 45 27 45 50 0 8 -22 39 -50 69 -52 57 -57 77 -18 74 94 -9 271 -33
304 -41 22 -6 69 -13 105 -15 36 -3 72 -8 80 -11 8 -3 39 -8 68 -10 43 -3 52
-1 50 12 -2 10 -25 20 -66 28 -34 7 -75 22 -92 34 -29 20 -130 162 -130 182 0
6 24 9 58 7 97 -4 122 -1 122 17 0 16 -37 53 -55 54 -5 0 -29 18 -53 40 -77
72 -161 279 -256 630 -47 176 -76 309 -76 344 1 14 25 39 80 80 107 80 134
109 125 135 -6 20 -14 21 -110 21 l-104 0 24 58 c61 150 95 349 102 602 8 302
-28 516 -109 643 -34 54 -56 59 -123 28z m139 -128 c39 -120 57 -234 63 -403
8 -230 -21 -482 -75 -655 -18 -58 -19 -59 -27 -30 -12 47 -75 175 -86 175 -5
0 -34 26 -63 58 -84 89 -87 49 -4 -49 21 -25 38 -53 38 -63 0 -12 5 -16 16
-12 20 8 68 -94 67 -141 -1 -23 4 -33 13 -33 12 0 12 -4 3 -21 -15 -29 -47
-21 -134 32 -83 49 -137 92 -222 173 -74 69 -74 73 -42 229 39 192 148 474
228 590 17 25 31 49 31 53 0 3 15 23 33 44 17 20 49 58 70 83 21 26 44 47 52
47 8 0 23 -31 39 -77z m-2700 -830 l74 -37 46 -95 46 -96 -20 -63 c-11 -35
-20 -76 -20 -92 0 -21 -11 -37 -47 -67 -80 -65 -124 -95 -130 -89 -3 3 -2 22
3 43 4 21 7 45 6 53 0 8 5 55 13 105 8 49 12 91 10 93 -10 10 -36 -10 -46 -35
l-11 -28 -54 60 c-29 33 -54 63 -54 66 0 4 14 9 30 13 17 3 30 10 30 16 0 11
-12 13 -47 10 -28 -2 -30 18 -7 63 13 26 91 117 101 117 1 0 36 -17 77 -37z
m1729 -453 c64 -48 115 -70 162 -70 19 0 35 -4 35 -9 0 -25 -55 -159 -77 -188
l-24 -32 36 -10 c20 -5 42 -8 48 -6 7 2 24 6 40 9 l27 6 0 -57 c0 -97 -112
-364 -219 -525 -47 -69 -181 -208 -202 -208 -5 0 -13 -9 -19 -20 -9 -18 -6
-26 23 -55 29 -29 94 -57 134 -58 7 0 10 -4 7 -8 -6 -11 -223 -129 -345 -189
l-101 -49 -67 33 c-37 19 -103 61 -148 94 -83 62 -283 248 -283 263 0 12 37
11 45 -1 8 -13 46 -13 81 0 l28 11 -25 23 c-13 12 -58 47 -99 78 -129 95 -233
220 -320 380 -47 88 -62 132 -54 163 5 20 12 22 79 23 72 0 78 -1 172 -53 l97
-54 -3 -40 c-4 -59 24 -148 50 -156 32 -10 68 20 81 70 l12 43 37 -21 c42 -24
63 -16 33 12 -26 25 -264 165 -319 188 -53 21 -57 31 -12 35 45 4 49 40 8 82
-16 17 -37 51 -46 75 -18 51 -18 54 -5 46 12 -8 106 40 136 70 l23 23 6 -36
c14 -90 47 -210 74 -267 28 -61 97 -140 154 -178 15 -10 29 -30 33 -45 12 -55
12 -55 37 -39 21 14 24 13 33 -1 9 -14 14 -14 45 -2 19 8 37 19 42 24 4 6 6 0
5 -14 -3 -23 0 -25 32 -22 48 5 112 60 182 158 102 141 224 382 251 497 7 26
15 47 20 47 4 0 31 -18 60 -40z m-898 -552 c34 -19 37 -24 31 -56 -3 -19 -13
-43 -23 -54 -17 -19 -17 -19 -29 5 -14 26 -30 127 -21 127 3 0 22 -10 42 -22z
m892 -745 c-3 -3 -11 -2 -17 2 -8 5 -7 11 2 22 12 15 13 14 16 -1 2 -10 1 -20
-1 -23z m-60 -169 c-3 -3 -12 -4 -19 -1 -8 3 -5 6 6 6 11 1 17 -2 13 -5z"/>
<path d="M3135 2744 c-36 -9 -75 -26 -75 -34 0 -4 23 -3 50 3 59 11 153 -4
182 -30 21 -18 23 -44 6 -61 -9 -9 -7 -13 6 -18 22 -9 36 11 36 52 0 50 -42
77 -135 87 -27 3 -59 3 -70 1z"/>
<path d="M3201 2558 c-10 -26 -6 -38 13 -38 8 0 16 14 18 30 5 36 -18 42 -31
8z"/>
<path d="M567 2413 c-4 -3 -7 -17 -7 -30 0 -26 16 -29 55 -11 30 13 28 33 -4
32 -11 0 -21 3 -21 8 0 10 -14 11 -23 1z"/>
<path d="M2374 1589 c-99 -22 -309 -112 -275 -117 13 -2 45 3 71 12 27 9 51
16 54 16 3 0 6 -29 6 -64 0 -68 7 -80 52 -91 21 -5 30 -2 42 17 24 37 41 134
28 162 -10 22 -8 24 41 34 29 7 72 12 97 13 72 2 93 9 79 25 -16 19 -95 16
-195 -7z m-48 -104 c-8 -68 -25 -107 -45 -103 -12 3 -17 19 -19 69 -3 60 -1
67 20 77 46 22 51 16 44 -43z"/>
<path d="M1797 1248 c-19 -29 -44 -62 -56 -72 -24 -22 -28 -46 -7 -46 23 0 95
89 102 127 10 52 -1 50 -39 -9z"/>
<path d="M1812 969 c-36 -54 -39 -69 -16 -69 8 0 24 20 35 45 l20 45 25 -30
c27 -31 54 -40 54 -16 0 12 -39 47 -75 68 -6 4 -25 -16 -43 -43z"/>
<path d="M2629 768 c100 -153 127 -320 67 -422 -13 -23 -62 -74 -108 -113 -47
-40 -117 -109 -157 -153 -65 -71 -70 -80 -48 -80 17 0 37 16 68 53 79 96 182
197 200 197 23 0 74 60 90 107 23 63 18 207 -10 284 -27 75 -83 159 -107 159
-13 0 -13 -5 5 -32z"/>
<path d="M2330 750 c0 -5 4 -10 9 -10 6 0 13 5 16 10 3 6 -1 10 -9 10 -9 0
-16 -4 -16 -10z"/>
<path d="M2350 656 c0 -2 7 -6 15 -10 8 -3 15 -1 15 4 0 6 -7 10 -15 10 -8 0
-15 -2 -15 -4z"/>
<path d="M2108 623 c7 -3 16 -2 19 1 4 3 -2 6 -13 5 -11 0 -14 -3 -6 -6z"/>
<path d="M2178 613 c7 -3 16 -2 19 1 4 3 -2 6 -13 5 -11 0 -14 -3 -6 -6z"/>
<path d="M2218 603 c7 -3 16 -2 19 1 4 3 -2 6 -13 5 -11 0 -14 -3 -6 -6z"/>
<path d="M2090 590 c8 -5 26 -9 40 -9 l25 1 -25 8 c-14 4 -32 8 -40 9 -13 1
-13 0 0 -9z"/>
<path d="M2168 573 c6 -2 18 -2 25 0 6 3 1 5 -13 5 -14 0 -19 -2 -12 -5z"/>
<path d="M3817 553 c-4 -3 -7 -11 -7 -17 0 -6 5 -5 12 2 6 6 9 14 7 17 -3 3
-9 2 -12 -2z"/>
<path d="M1385 413 c-55 -65 -154 -174 -220 -243 -99 -102 -116 -125 -100
-128 15 -3 53 29 153 133 l132 138 63 -59 c76 -73 133 -114 260 -188 91 -54
126 -63 113 -30 -3 8 1 14 10 14 8 0 17 6 20 14 3 9 30 16 77 20 122 12 316
46 452 81 72 18 147 36 168 39 40 7 53 36 16 36 -11 0 -89 -18 -172 -39 -133
-34 -301 -67 -447 -86 -25 -4 -69 -13 -98 -22 -31 -8 -68 -12 -87 -9 -47 9
-199 111 -283 191 l-72 67 46 56 c25 30 52 68 60 84 35 67 3 43 -91 -69z"/>
<path d="M730 407 c-152 -63 -315 -203 -370 -318 -33 -70 -37 -89 -17 -89 6 0
25 27 40 61 49 106 159 206 327 302 53 29 100 66 85 66 -5 0 -35 -10 -65 -22z"/>
<path d="M3705 240 c-3 -5 -1 -10 4 -10 6 0 11 5 11 10 0 6 -2 10 -4 10 -3 0
-8 -4 -11 -10z"/>
<path d="M1227 143 c-32 -51 -67 -120 -67 -133 0 -5 7 -10 15 -10 14 0 95 145
95 170 0 21 -21 8 -43 -27z"/>
<path d="M3648 69 c7 -9 10 -24 6 -33 -4 -11 -1 -16 10 -16 23 0 20 24 -6 46
-15 12 -18 13 -10 3z"/>
<path d="M3075 45 c-44 -13 -91 -28 -105 -34 -56 -22 66 -11 145 14 44 14 88
25 98 25 10 0 15 5 12 10 -10 16 -64 11 -150 -15z"/>
<path d="M3570 67 c0 -16 31 -67 41 -67 6 0 6 6 0 18 -15 27 -40 58 -41 49z"/>
<path d="M932 18 c2 -6 10 -14 16 -16 7 -2 10 2 6 12 -7 18 -28 22 -22 4z"/>
</g>
</svg>
